<svg viewBox="0 0 800 800" fill="none" xmlns="http://www.w3.org/2000/svg">
<rect x="439" y="283" width="68" height="234" rx="34" fill="black"/>
<path d="M501.5 377.057C518.833 387.064 518.833 412.083 501.5 422.09L362 502.631C344.667 512.638 323 500.129 323 480.114V319.033C323 299.019 344.667 286.509 362 296.517L501.5 377.057Z" fill="black"/>
<path d="M400 33.3334C327.48 33.3334 256.589 54.838 196.291 95.1279C135.993 135.418 88.9964 192.683 61.2443 259.683C33.4921 326.682 26.2309 400.407 40.3788 471.533C54.5267 542.66 89.4483 607.993 140.728 659.273C192.007 710.552 257.341 745.473 328.467 759.621C399.593 773.769 473.318 766.508 540.317 738.756C607.317 711.004 664.582 664.007 704.872 603.709C745.162 543.411 766.667 472.52 766.667 400C766.887 351.787 757.554 304.008 739.205 259.422C720.857 214.837 693.857 174.328 659.765 140.236C625.672 106.143 585.164 79.1434 540.578 60.7948C495.992 42.4462 448.213 33.1128 400 33.3334ZM400 700C340.666 700 282.664 682.405 233.329 649.441C183.994 616.477 145.543 569.623 122.836 514.805C100.13 459.987 94.1889 399.667 105.764 341.473C117.34 283.279 145.912 229.824 187.868 187.868C229.824 145.912 283.279 117.34 341.473 105.764C399.667 94.1889 459.987 100.13 514.805 122.836C569.623 145.543 616.477 183.994 649.441 233.329C682.405 282.664 700 340.666 700 400C699.562 479.43 667.815 555.482 611.648 611.648C555.482 667.815 479.43 699.562 400 700Z" fill="black"/>
</svg>
